# xmcd
#
# Track frame offsets:
#	150
#	27800
#	57325
#	70275
#	94950
#	104925
#	124075
#	139550
#	159225
#	175600
#	190350
#	202475
#	221572
#	236475
#	253322
#	269230
#	293800
#
# Disc length: 4161 seconds
#
# Revision: 0
# Processed by: cddbd v1.4b42PL1 Copyright (c) Steve Scherf et al.
# Submitted via: dBpowerAMP V4.0
#
DISCID=14103f11
DTITLE=Cephas and Wiggins - Sweet Bitter Blues
DYEAR=1900
DGENRE=Blues
TTITLE0=Sweet Bitter Blues
TTITLE1=St. James Infirmary
TTITLE2=I Saw the Light
TTITLE3=Sickbed Blues
TTITLE4=Piedmont Rag
TTITLE5=Dog Days of August
TTITLE6=Roberta, A Thousand Miles from Home
TTITLE7=Highway 301
TTITLE8=Hoodoo Woman
TTITLE9=Louisiana Chase
TTITLE10=Bowling Green Rag
TTITLE11=Bye Bye Baby
TTITLE12=Last Fair Deal
TTITLE13=Big Boss Man
TTITLE14=Burn Your Bridges
TTITLE15=Running and Hiding
TTITLE16=Bye Bye Baby (trad. arr.)
EXTD=John Cephas and Phil Wiggins
EXTT0=
EXTT1=
EXTT2=
EXTT3=
EXTT4=
EXTT5=
EXTT6=
EXTT7=
EXTT8=
EXTT9=
EXTT10=
EXTT11=
EXTT12=
EXTT13=
EXTT14=
EXTT15=
EXTT16=
PLAYORDER=
